<svg xmlns="http://www.w3.org/2000/svg" version="1.1" xmlns:xlink="http://www.w3.org/1999/xlink" xmlns:svgjs="http://svgjs.dev/svgjs" width="1440" height="560" preserveAspectRatio="none" viewBox="0 0 1440 560"><g clip-path="url(&quot;#SvgjsClipPath1001&quot;)" fill="none"><rect width="1440" height="560" x="0" y="0" fill="rgba(14, 42, 71, 1)"></rect><circle r="93.335" cx="-34.42" cy="-16.38" stroke="#365aa3" stroke-opacity="0.25" stroke-width="2"></circle><circle r="93.335" cx="417.23" cy="360.82" stroke="#365aa3" stroke-opacity="0.25" stroke-width="2"></circle><circle r="93.335" cx="818.61" cy="732.46" stroke="#365aa3" stroke-opacity="0.25" stroke-width="2"></circle><circle r="143.95" cx="557.36" cy="361.28" stroke="#365aa3" stroke-opacity="0.25" stroke-width="2"></circle><circle r="154.275" cx="1194.52" cy="417.05" stroke="#365aa3" stroke-opacity="0.25" stroke-width="2"></circle><circle r="148.715" cx="570.31" cy="14.05" stroke="#365aa3" stroke-opacity="0.25" stroke-width="2"></circle><circle r="109.48" cx="751.7" cy="139.01" stroke="#365aa3" stroke-opacity="0.25" stroke-width="2"></circle><circle r="89.765" cx="1034.73" cy="439.08" stroke="#365aa3" stroke-opacity="0.25" stroke-width="2"></circle><circle r="80.13" cx="594.88" cy="478.01" stroke="#365aa3" stroke-opacity="0.25" stroke-width="2"></circle><circle r="76.06" cx="1362.01" cy="33.71" stroke="#365aa3" stroke-opacity="0.25" stroke-width="2"></circle><circle r="81.25" cx="75.18" cy="231.78" stroke="#365aa3" stroke-opacity="0.25" stroke-width="2"></circle><circle r="152.235" cx="1081.09" cy="130.89" stroke="#365aa3" stroke-opacity="0.25" stroke-width="2"></circle><circle r="108.67" cx="586.32" cy="424.36" stroke="#365aa3" stroke-opacity="0.25" stroke-width="2"></circle><circle r="122.905" cx="1018.86" cy="87.38" stroke="#365aa3" stroke-opacity="0.25" stroke-width="2"></circle><circle r="50.545" cx="736.81" cy="44.96" stroke="#365aa3" stroke-opacity="0.25" stroke-width="2"></circle><circle r="78.375" cx="299.97" cy="438.89" stroke="#365aa3" stroke-opacity="0.25" stroke-width="2"></circle><circle r="83.41" cx="1127.51" cy="406.88" stroke="#365aa3" stroke-opacity="0.25" stroke-width="2"></circle><circle r="56.83" cx="1296.69" cy="327.2" stroke="#365aa3" stroke-opacity="0.25" stroke-width="2"></circle><circle r="51.9" cx="278.9" cy="142.82" stroke="#365aa3" stroke-opacity="0.25" stroke-width="2"></circle><circle r="110.545" cx="641.38" cy="420.7" stroke="#365aa3" stroke-opacity="0.25" stroke-width="2"></circle><circle r="96.77" cx="11.56" cy="168.31" stroke="#365aa3" stroke-opacity="0.25" stroke-width="2"></circle><circle r="60.47" cx="339.93" cy="1.1" stroke="#365aa3" stroke-opacity="0.25" stroke-width="2"></circle><circle r="91.44" cx="1410.69" cy="446.21" stroke="#365aa3" stroke-opacity="0.25" stroke-width="2"></circle><circle r="140.76" cx="283.71" cy="101.61" stroke="#365aa3" stroke-opacity="0.25" stroke-width="2"></circle><circle r="119.03" cx="179.4" cy="143.43" stroke="#365aa3" stroke-opacity="0.25" stroke-width="2"></circle><circle r="115.13" cx="282.38" cy="154.06" stroke="#365aa3" stroke-opacity="0.25" stroke-width="2"></circle><circle r="178.505" cx="1269.07" cy="317.17" stroke="#365aa3" stroke-opacity="0.25" stroke-width="2"></circle><circle r="105.685" cx="148.88" cy="78.87" stroke="#365aa3" stroke-opacity="0.25" stroke-width="2"></circle><circle r="73.865" cx="112.18" cy="539.34" stroke="#365aa3" stroke-opacity="0.25" stroke-width="2"></circle><circle r="184.25" cx="735.23" cy="350.56" stroke="#365aa3" stroke-opacity="0.25" stroke-width="2"></circle><circle r="177.61" cx="805" cy="342.18" stroke="#365aa3" stroke-opacity="0.25" stroke-width="2"></circle><circle r="52.625" cx="1093.79" cy="80.73" stroke="#365aa3" stroke-opacity="0.25" stroke-width="2"></circle><circle r="138.26" cx="610.66" cy="133.8" stroke="#365aa3" stroke-opacity="0.25" stroke-width="2"></circle><circle r="59.67" cx="674.09" cy="446.58" stroke="#365aa3" stroke-opacity="0.25" stroke-width="2"></circle><circle r="89.495" cx="1415.36" cy="145.25" stroke="#365aa3" stroke-opacity="0.25" stroke-width="2"></circle><circle r="123.37" cx="1415.12" cy="84.86" stroke="#365aa3" stroke-opacity="0.25" stroke-width="2"></circle><circle r="51.65" cx="399.91" cy="331.34" stroke="#365aa3" stroke-opacity="0.25" stroke-width="2"></circle><circle r="165.12" cx="672.29" cy="198.74" stroke="#365aa3" stroke-opacity="0.25" stroke-width="2"></circle><circle r="133.885" cx="1299.42" cy="199.53" stroke="#365aa3" stroke-opacity="0.25" stroke-width="2"></circle><circle r="77.965" cx="936.5" cy="161.43" stroke="#365aa3" stroke-opacity="0.25" stroke-width="2"></circle></g><defs><clipPath id="SvgjsClipPath1001"><rect width="1440" height="560" x="0" y="0"></rect></clipPath></defs></svg>